<svg xmlns="http://www.w3.org/2000/svg" width="1200" height="675" viewBox="0 0 1200 675">
    <defs>
        <pattern id="grid" width="40" height="40" patternUnits="userSpaceOnUse">
            <path d="M 40 0 L 0 0 0 40" fill="none" stroke="rgba(255,255,255,0.05)" stroke-width="1"/>
        </pattern>
        <marker id="arrow" viewBox="0 0 10 10" refX="8" refY="5" markerWidth="6" markerHeight="6" orient="auto-start-reverse">
            <path d="M 0 0 L 10 5 L 0 10 z" fill="#0b4db8" />
        </marker>
        <marker id="arrow2" viewBox="0 0 10 10" refX="8" refY="5" markerWidth="6" markerHeight="6" orient="auto-start-reverse">
            <path d="M 0 0 L 10 5 L 0 10 z" fill="#e06a2e" />
        </marker>
        <glow id="glow">
            <feGaussianBlur stdDeviation="2" result="coloredBlur"/>
            <feMerge>
                <feMergeNode in="coloredBlur"/>
                <feMergeNode in="SourceGraphic"/>
            </feMerge>
        </glow>
    </defs>
    <rect width="1200" height="675" fill="#050810" />
    <rect width="1200" height="675" fill="url(#grid)" />
    
    <text x="600" y="60" fill="#ffffff" font-family="Space Grotesk, sans-serif" font-size="36" font-weight="bold" text-anchor="middle" letter-spacing="2">EXTENDED RECON PIPELINE</text>

    <!-- Paths and Nodes generated dynamically in a grid -->
    <path d="M 150 150 L 150 220" stroke="#0b4db8" stroke-width="2" fill="none" marker-end="url(#arrow)"><animate attributeName="stroke-dashoffset" values="20;0" dur="1s" repeatCount="indefinite"/></path>
    <path d="M 150 150 L 600 220" stroke="rgba(255,255,255,0.15)" stroke-dasharray="5 5" stroke-width="1.5" fill="none"/>
    <path d="M 600 150 L 600 220" stroke="#0b4db8" stroke-width="2" fill="none" marker-end="url(#arrow)"><animate attributeName="stroke-dashoffset" values="20;0" dur="1s" repeatCount="indefinite"/></path>
    <path d="M 600 150 L 1050 220" stroke="rgba(255,255,255,0.15)" stroke-dasharray="5 5" stroke-width="1.5" fill="none"/>
    <path d="M 1050 150 L 1050 220" stroke="#0b4db8" stroke-width="2" fill="none" marker-end="url(#arrow)"><animate attributeName="stroke-dashoffset" values="20;0" dur="1s" repeatCount="indefinite"/></path>
    <path d="M 150 260 L 150 330" stroke="#0b4db8" stroke-width="2" fill="none" marker-end="url(#arrow)"><animate attributeName="stroke-dashoffset" values="20;0" dur="1s" repeatCount="indefinite"/></path>
    <path d="M 150 260 L 600 330" stroke="rgba(255,255,255,0.15)" stroke-dasharray="5 5" stroke-width="1.5" fill="none"/>
    <path d="M 600 260 L 600 330" stroke="#0b4db8" stroke-width="2" fill="none" marker-end="url(#arrow)"><animate attributeName="stroke-dashoffset" values="20;0" dur="1s" repeatCount="indefinite"/></path>
    <path d="M 600 260 L 1050 330" stroke="rgba(255,255,255,0.15)" stroke-dasharray="5 5" stroke-width="1.5" fill="none"/>
    <path d="M 1050 260 L 1050 330" stroke="#0b4db8" stroke-width="2" fill="none" marker-end="url(#arrow)"><animate attributeName="stroke-dashoffset" values="20;0" dur="1s" repeatCount="indefinite"/></path>
    <path d="M 150 370 L 150 440" stroke="#0b4db8" stroke-width="2" fill="none" marker-end="url(#arrow)"><animate attributeName="stroke-dashoffset" values="20;0" dur="1s" repeatCount="indefinite"/></path>
    <path d="M 150 370 L 600 440" stroke="rgba(255,255,255,0.15)" stroke-dasharray="5 5" stroke-width="1.5" fill="none"/>
    <path d="M 600 370 L 600 440" stroke="#0b4db8" stroke-width="2" fill="none" marker-end="url(#arrow)"><animate attributeName="stroke-dashoffset" values="20;0" dur="1s" repeatCount="indefinite"/></path>
    <path d="M 600 370 L 1050 440" stroke="rgba(255,255,255,0.15)" stroke-dasharray="5 5" stroke-width="1.5" fill="none"/>
    <path d="M 1050 370 L 1050 440" stroke="#0b4db8" stroke-width="2" fill="none" marker-end="url(#arrow)"><animate attributeName="stroke-dashoffset" values="20;0" dur="1s" repeatCount="indefinite"/></path>
    <path d="M 150 480 L 375 560" stroke="#0e7565" stroke-width="2" fill="none" marker-end="url(#arrow)"/>
    <path d="M 600 480 L 375 560" stroke="#0e7565" stroke-width="2" fill="none" marker-end="url(#arrow)"/>
    <path d="M 600 480 L 825 560" stroke="#e06a2e" stroke-width="2" fill="none" marker-end="url(#arrow2)"/>
    <rect x="15.0" y="105" width="270" height="50" rx="8" fill="rgba(13,17,23,0.95)" stroke="#0b4db8" stroke-width="2"/>
    <text x="150" y="136" fill="#fff" font-family="monospace" font-size="14" font-weight="bold" text-anchor="middle">Amass/Subfinder/Assetfinder</text>
    <circle cx="15.0" cy="130" r="4" fill="#0b4db8"/>
    <circle cx="285.0" cy="130" r="4" fill="#0b4db8"/>
    <rect x="465.0" y="105" width="270" height="50" rx="8" fill="rgba(13,17,23,0.95)" stroke="#0b4db8" stroke-width="2"/>
    <text x="600" y="136" fill="#fff" font-family="monospace" font-size="14" font-weight="bold" text-anchor="middle">DNSX/MassDNS</text>
    <circle cx="465.0" cy="130" r="4" fill="#0b4db8"/>
    <circle cx="735.0" cy="130" r="4" fill="#0b4db8"/>
    <rect x="915.0" y="105" width="270" height="50" rx="8" fill="rgba(13,17,23,0.95)" stroke="#0b4db8" stroke-width="2"/>
    <text x="1050" y="136" fill="#fff" font-family="monospace" font-size="14" font-weight="bold" text-anchor="middle">Naabu/Masscan/Nmap</text>
    <circle cx="915.0" cy="130" r="4" fill="#0b4db8"/>
    <circle cx="1185.0" cy="130" r="4" fill="#0b4db8"/>
    <rect x="15.0" y="215" width="270" height="50" rx="8" fill="rgba(13,17,23,0.95)" stroke="#e06a2e" stroke-width="2"/>
    <text x="150" y="246" fill="#fff" font-family="monospace" font-size="14" font-weight="bold" text-anchor="middle">HTTPX/Httprobe</text>
    <circle cx="15.0" cy="240" r="4" fill="#e06a2e"/>
    <circle cx="285.0" cy="240" r="4" fill="#e06a2e"/>
    <rect x="465.0" y="215" width="270" height="50" rx="8" fill="rgba(13,17,23,0.95)" stroke="#e06a2e" stroke-width="2"/>
    <text x="600" y="246" fill="#fff" font-family="monospace" font-size="14" font-weight="bold" text-anchor="middle">Katana/Hakrawler</text>
    <circle cx="465.0" cy="240" r="4" fill="#e06a2e"/>
    <circle cx="735.0" cy="240" r="4" fill="#e06a2e"/>
    <rect x="915.0" y="215" width="270" height="50" rx="8" fill="rgba(13,17,23,0.95)" stroke="#e06a2e" stroke-width="2"/>
    <text x="1050" y="246" fill="#fff" font-family="monospace" font-size="14" font-weight="bold" text-anchor="middle">Gau/Waybackurls</text>
    <circle cx="915.0" cy="240" r="4" fill="#e06a2e"/>
    <circle cx="1185.0" cy="240" r="4" fill="#e06a2e"/>
    <rect x="15.0" y="325" width="270" height="50" rx="8" fill="rgba(13,17,23,0.95)" stroke="#0b4db8" stroke-width="2"/>
    <text x="150" y="356" fill="#fff" font-family="monospace" font-size="14" font-weight="bold" text-anchor="middle">FFUF/Dirsearch/Gobuster</text>
    <circle cx="15.0" cy="350" r="4" fill="#0b4db8"/>
    <circle cx="285.0" cy="350" r="4" fill="#0b4db8"/>
    <rect x="465.0" y="325" width="270" height="50" rx="8" fill="rgba(13,17,23,0.95)" stroke="#0b4db8" stroke-width="2"/>
    <text x="600" y="356" fill="#fff" font-family="monospace" font-size="14" font-weight="bold" text-anchor="middle">Arjun/ParamSpider</text>
    <circle cx="465.0" cy="350" r="4" fill="#0b4db8"/>
    <circle cx="735.0" cy="350" r="4" fill="#0b4db8"/>
    <rect x="915.0" y="325" width="270" height="50" rx="8" fill="rgba(13,17,23,0.95)" stroke="#0b4db8" stroke-width="2"/>
    <text x="1050" y="356" fill="#fff" font-family="monospace" font-size="14" font-weight="bold" text-anchor="middle">LinkFinder/SecretFinder</text>
    <circle cx="915.0" cy="350" r="4" fill="#0b4db8"/>
    <circle cx="1185.0" cy="350" r="4" fill="#0b4db8"/>
    <rect x="15.0" y="435" width="270" height="50" rx="8" fill="rgba(13,17,23,0.95)" stroke="#e06a2e" stroke-width="2"/>
    <text x="150" y="466" fill="#fff" font-family="monospace" font-size="14" font-weight="bold" text-anchor="middle">Wappalyzer/WhatWeb</text>
    <circle cx="15.0" cy="460" r="4" fill="#e06a2e"/>
    <circle cx="285.0" cy="460" r="4" fill="#e06a2e"/>
    <rect x="465.0" y="435" width="270" height="50" rx="8" fill="rgba(13,17,23,0.95)" stroke="#e06a2e" stroke-width="2"/>
    <text x="600" y="466" fill="#fff" font-family="monospace" font-size="14" font-weight="bold" text-anchor="middle">CloudEnum/S3Scanner</text>
    <circle cx="465.0" cy="460" r="4" fill="#e06a2e"/>
    <circle cx="735.0" cy="460" r="4" fill="#e06a2e"/>
    <rect x="915.0" y="435" width="270" height="50" rx="8" fill="rgba(13,17,23,0.95)" stroke="#e06a2e" stroke-width="2"/>
    <text x="1050" y="466" fill="#fff" font-family="monospace" font-size="14" font-weight="bold" text-anchor="middle">Nuclei/Nikto/OpenVAS</text>
    <circle cx="915.0" cy="460" r="4" fill="#e06a2e"/>
    <circle cx="1185.0" cy="460" r="4" fill="#e06a2e"/>
    <rect x="265.0" y="555" width="220" height="50" rx="8" fill="rgba(13,17,23,0.95)" stroke="#0e7565" stroke-width="2"/>
    <text x="375" y="586" fill="#fff" font-family="monospace" font-size="14" font-weight="bold" text-anchor="middle">Kiterunner (API)</text>
    <circle cx="265.0" cy="580" r="4" fill="#0e7565"/>
    <circle cx="485.0" cy="580" r="4" fill="#0e7565"/>
    <rect x="715.0" y="555" width="220" height="50" rx="8" fill="rgba(13,17,23,0.95)" stroke="#0e7565" stroke-width="2"/>
    <text x="825" y="586" fill="#fff" font-family="monospace" font-size="14" font-weight="bold" text-anchor="middle">Burp Suite</text>
    <circle cx="715.0" cy="580" r="4" fill="#0e7565"/>
    <circle cx="935.0" cy="580" r="4" fill="#0e7565"/>
</svg>